# xmcd
#
# Track frame offsets: 
#        150
#        19662
#        30439
#        44695
#        57569
#        69674
#        83501
#        92810
#        101600
#        111998
#        130421
#        144469
#
# Disc length: 2182 seconds
#
# Revision: 0
# Processed by: cddbd v1.5.2PL0 Copyright (c) Steve Scherf et al.
# Submitted via: ExactAudioCopy v0.95a3
#
DISCID=a508840c
DTITLE=Various Artist - Open Country
DYEAR=2007
DGENRE=Country
TTITLE0=Kenny Rogers - Coward of the County
TTITLE1=Nitty Gritty Dirt Band - Honky Tonk Blues
TTITLE2=Conway Twitty - You've Never Been This Far Before
TTITLE3=Asleep at the Wheel - Route 66
TTITLE4=George Jones - We Must Have Been Out of Our Minds
TTITLE5=Willie Nelson - Funny How Time Slips Away
TTITLE6=Linda Ronstadt - When Will I Be Loved
TTITLE7=Faron Young - Alone With You
TTITLE8=Ferlin Husky - Wings of a Dove
TTITLE9=Juice Newton - The Sweetest Thing
TTITLE10=Glen Campbell - Wichita Lineman
TTITLE11=Jessi Colter - Storms Never Last
EXTD=
EXTT0=
EXTT1=
EXTT2=
EXTT3=
EXTT4=
EXTT5=
EXTT6=
EXTT7=
EXTT8=
EXTT9=
EXTT10=
EXTT11=
PLAYORDER=
